<svg width="457" height="374" viewBox="0 0 457 374" fill="none" xmlns="http://www.w3.org/2000/svg">
<path d="M233.372 360.584C321.846 360.584 393.748 288.682 393.748 200.212C393.748 111.743 321.846 39.8398 233.372 39.8398C144.574 39.8398 73 111.413 73 200.212C73 288.682 144.574 360.584 233.372 360.584Z" fill="#EAEEF9"/>
<path d="M134.406 156.373H328.266C335.524 156.373 342.06 162.545 342.06 170.17V292.511C342.06 299.77 335.888 306.305 328.266 306.305H134.406C127.148 306.305 120.613 300.133 120.613 292.511V170.17C120.613 162.545 127.148 156.373 134.406 156.373Z" fill="url(#paint0_linear_1813_2369)"/>
<path d="M421.864 160.12C426.835 155.482 427.168 147.86 422.529 142.888C417.89 137.921 410.268 137.588 405.296 142.226C400.329 146.866 399.996 154.488 404.635 159.455C408.941 164.095 416.896 164.76 421.864 160.12Z" fill="#EAEEF9"/>
<path d="M422.527 105.447C424.516 103.459 424.849 100.146 422.86 98.1576C420.871 96.1688 417.559 95.8361 415.571 97.8249C413.582 99.8138 413.249 103.126 415.238 105.114C417.227 107.436 420.542 107.436 422.527 105.447Z" fill="#EAEEF9"/>
<path d="M292.311 30.233C293.634 28.9061 293.966 26.5883 292.64 25.2614C291.317 23.9345 288.995 23.6054 287.672 24.9289C286.345 26.2557 286.016 28.5736 287.339 29.9005C288.666 31.2239 290.984 31.5565 292.311 30.233Z" fill="#EAEEF9"/>
<g filter="url(#filter0_d_1813_2369)">
<path d="M412.488 91.753L364.205 177.792C362.388 180.696 358.76 181.787 356.217 179.97L273.448 131.687C270.541 129.873 269.454 126.242 271.268 123.701L334.797 14.0667C336.614 11.1626 340.246 10.0724 342.786 11.8861L402.685 46.7384L412.488 91.753Z" fill="#F2F6FA"/>
</g>
<path d="M402.684 46.7383L388.891 69.9709C387.074 73.6018 388.164 77.2328 391.432 79.41L412.124 91.3894" fill="#D5DAE6"/>
<path d="M345.691 69.2471C347.14 68.8836 348.595 68.8838 349.685 68.8838C351.135 68.8838 352.589 68.8838 354.039 68.8838C355.493 69.2471 357.307 69.6071 358.76 69.9705C360.574 70.6974 362.028 71.4243 363.478 72.1512C365.656 73.2381 367.473 74.6918 368.923 76.5056C370.376 77.9592 371.467 79.7731 372.19 81.9503C372.918 83.7675 372.918 85.9448 372.918 87.7586C372.554 89.9393 371.827 92.1161 370.74 93.9302C369.65 95.7469 368.56 97.1975 367.109 98.6508C365.656 99.7413 364.569 100.465 362.751 101.192C361.301 101.919 359.847 102.283 358.397 102.283L354.402 102.646C353.313 102.646 352.225 103.006 350.771 103.369C349.684 103.732 348.958 104.096 348.231 104.823L344.237 109.904L337.705 106.273L340.609 99.7413C340.969 98.6516 342.059 97.561 342.786 96.8375C343.877 96.1105 344.964 95.7469 346.053 95.3843C347.504 95.0208 348.595 95.0199 350.048 94.6572C351.498 94.6572 352.953 94.2937 354.402 93.9302C355.856 93.5702 356.943 93.2066 358.397 92.4796C359.847 91.7525 360.574 90.6655 361.301 89.2121C361.665 88.4853 362.028 87.3984 362.388 86.3081C362.388 85.2177 362.388 84.4945 362.028 83.7676C361.665 82.6773 361.301 81.9503 360.574 81.2268C359.847 80.5 359.124 79.7732 358.033 79.0463C356.943 78.3228 355.493 77.596 354.039 77.2325C352.953 76.8691 351.862 76.869 350.771 76.869C349.684 76.869 348.958 76.869 348.231 76.869C347.868 76.869 347.14 76.869 346.78 76.5056C346.053 76.1421 345.327 75.0551 345.327 74.3283L345.691 69.2471ZM327.175 117.166C327.539 116.439 328.266 115.712 328.99 114.988C329.717 114.626 330.443 113.899 331.17 113.899C332.984 113.535 334.801 113.535 336.251 114.626C336.978 114.989 337.705 115.712 338.428 116.439C338.792 117.166 339.155 117.893 339.519 118.617C340.609 122.248 338.428 125.515 334.801 126.605C332.984 126.968 331.17 126.605 329.717 125.878C328.99 125.515 328.266 124.788 327.539 124.064C327.176 123.338 326.448 122.611 326.448 121.884C326.085 121.16 326.085 120.07 326.448 119.343C326.448 118.617 326.812 117.893 327.175 117.166Z" fill="#CED6E2"/>
<g filter="url(#filter1_d_1813_2369)">
<path d="M102.098 54.3632L157.279 112.085C159.093 114.262 159.093 117.166 156.915 118.98L100.645 172.347C98.4675 174.161 95.5636 174.161 93.746 171.983L23.318 97.561C21.5042 95.3834 21.5042 92.4796 23.6814 90.6654L64.7054 52.1826L102.098 54.3632Z" fill="#F2F6FA"/>
</g>
<path d="M64.3418 51.4561L79.5891 67.4302C81.7663 69.6074 85.3972 69.6074 87.5779 67.4302L101.735 54.0001" fill="#D5DAE6"/>
<path d="M68.6992 101.193C68.6992 100.106 69.0627 99.0153 69.4227 97.9256C69.7861 96.8385 70.1495 95.7479 70.513 94.6582C70.8764 93.5712 71.6033 92.4806 72.3267 91.39C73.0536 90.3038 74.144 89.2132 75.2308 88.1263C76.6845 86.6726 78.1383 85.5822 79.952 84.8588C81.4024 84.1319 83.2196 83.7686 84.6699 83.7686C86.1237 83.7686 87.9373 84.1319 89.3911 84.4953C90.8416 85.2188 92.2948 86.309 93.7454 87.3994C94.836 88.4862 95.9266 89.9403 96.2893 91.39C96.6493 92.4806 97.0128 93.9347 97.3763 95.3853C97.3763 96.475 97.3763 97.9256 97.3763 99.0153C97.0128 100.106 97.0128 101.193 96.6493 102.284C96.6493 103.373 96.2893 104.097 96.2893 105.187C96.2893 105.914 96.2893 106.638 97.0128 107.364L99.9175 111.722L95.5631 115.716L91.2051 111.722C90.4814 110.995 89.7545 110.269 89.3911 109.182C89.0277 108.091 89.0278 107.365 89.0278 106.278C89.0278 105.187 89.3911 104.097 89.3911 103.011C89.7545 101.92 89.7545 100.829 89.7545 99.7423C89.7545 98.6526 89.7545 97.562 89.3911 96.475C89.0277 95.3844 88.3008 94.2982 87.574 93.2076C87.2139 92.4806 86.4871 92.117 85.7602 91.7535C85.0333 91.39 84.3099 91.39 83.583 91.39C82.8561 91.39 82.1292 91.7535 81.4024 92.117C80.6789 92.4806 79.952 92.8441 79.2252 93.5712C78.4983 94.2973 77.7748 95.3844 77.048 96.1115C76.6845 96.8385 76.3211 97.562 75.9576 98.6517C75.5942 99.3788 75.5943 100.106 75.5943 100.466C75.5943 100.829 75.2342 101.193 74.8707 101.556C74.5073 102.284 73.4171 102.284 72.6902 101.92L68.6992 101.193ZM102.098 126.606C101.734 126.243 101.371 125.516 101.007 124.792C100.644 124.065 100.644 123.338 100.644 122.612C100.644 121.161 101.371 119.707 102.461 118.621C102.821 118.258 103.548 117.894 104.275 117.531C105.002 117.167 105.729 117.167 106.452 117.167C108.632 117.167 110.81 118.621 111.537 120.798C111.897 121.525 111.897 122.249 111.897 122.976C111.897 123.702 111.537 124.429 111.537 125.152C111.174 125.879 110.81 126.243 110.083 126.97C109.72 127.333 108.992 128.056 108.269 128.056C106.816 128.42 105.365 128.42 104.275 128.056C103.185 127.696 102.461 127.333 102.098 126.606Z" fill="#CED6E2"/>
<g filter="url(#filter2_d_1813_2369)">
<path d="M246.222 145.12L224.804 221.72C224.077 224.26 221.172 226.074 218.632 224.987L144.21 203.205C141.669 202.478 139.852 199.574 140.942 197.033L169.983 98.2882C170.71 95.747 173.613 93.9338 176.155 95.0209L230.248 110.995L246.222 145.12Z" fill="#F2F6FA"/>
</g>
<path d="M230.255 111.129L223.35 132.777C222.623 135.681 224.44 138.949 227.344 139.676L246.49 145.086" fill="#D5DAE6"/>
<path d="M189.223 140.399C190.312 140.039 191.403 139.676 192.49 139.312C193.58 138.949 194.667 138.586 196.121 138.586C197.574 138.586 198.661 138.586 200.115 138.586C201.566 138.586 203.019 138.949 204.47 139.312C206.286 139.676 208.101 140.763 209.554 141.853C211.004 142.944 212.095 144.03 213.182 145.484C213.908 146.935 214.635 148.388 214.999 149.839C215.362 151.655 214.999 153.469 214.635 154.924C214.272 156.373 213.546 157.827 212.459 159.277C211.731 160.368 210.641 161.458 209.554 162.182C208.464 162.909 207.374 163.635 206.286 163.999L203.019 165.086C202.292 165.449 201.202 165.813 200.479 166.176C199.752 166.54 199.025 167.266 199.025 167.989L196.848 172.711L191.039 170.171L192.126 164.362C192.126 163.272 192.853 162.545 193.58 161.818C194.307 161.095 195.03 160.368 196.121 160.004C197.211 159.641 198.298 159.278 199.025 158.914C200.115 158.551 201.202 158.191 202.292 157.464C203.383 157.1 204.106 156.373 205.197 155.647C205.923 154.924 206.65 153.833 207.01 152.379C207.01 152.019 207.01 151.293 207.01 150.566C207.01 149.839 206.65 149.115 206.286 148.388C205.923 147.661 205.197 147.297 204.47 146.571C203.743 146.211 203.019 145.848 201.929 145.484C200.839 145.121 199.752 145.121 198.298 145.121C197.571 145.121 196.484 145.121 195.757 145.484C195.03 145.484 194.307 145.848 193.943 145.848C193.58 145.848 193.217 146.211 192.49 145.848C191.763 145.848 191.039 145.121 191.039 144.394L189.223 140.399ZM183.778 182.15C184.141 181.423 184.141 180.696 184.868 180.333C185.231 179.61 185.954 179.246 186.318 178.883C187.772 178.156 189.223 178.156 190.312 178.519C191.039 178.883 191.763 179.246 192.126 179.609C192.49 179.969 193.217 180.696 193.58 181.06C195.03 183.6 193.943 186.868 191.403 187.958C189.949 188.685 188.496 188.685 187.408 188.321C186.681 187.958 185.954 187.958 185.592 187.232C184.868 186.868 184.505 186.141 184.141 185.781C183.778 185.054 183.778 184.691 183.414 183.964C183.778 183.6 183.778 182.877 183.778 182.15Z" fill="#CED6E2"/>
<g filter="url(#filter3_d_1813_2369)">
<path d="M421.202 276.174L350.774 314.29C348.596 315.381 345.329 314.654 344.238 312.114L309.026 243.502C307.935 241.322 308.662 238.054 311.203 236.967L402.687 188.682C404.867 187.595 408.135 188.322 409.222 190.863L434.635 240.595L421.202 276.174Z" fill="#F2F6FA"/>
</g>
<path d="M434.272 241.321L414.667 251.488C412.127 252.941 411.04 256.568 412.127 259.113L420.838 276.537" fill="#D5DAE6"/>
<path d="M385.624 231.883C386.715 232.245 387.438 232.972 388.529 233.336C389.619 233.7 390.342 234.427 391.433 235.514C392.523 236.603 393.246 237.33 393.973 238.417C395.064 239.508 395.791 240.598 396.514 242.048C397.604 243.503 397.968 245.679 397.968 247.13C398.331 248.947 397.968 250.397 397.968 252.214C397.604 253.665 396.878 255.119 396.151 256.568C395.064 258.023 393.61 259.113 392.16 259.837C391.069 260.563 389.255 260.926 387.802 261.29C386.715 261.653 384.897 261.653 383.808 261.29C382.721 260.926 381.266 260.926 380.18 260.199L377.276 258.75C376.549 258.386 375.459 258.023 374.732 257.659C374.008 257.295 372.918 257.295 372.555 258.023L367.837 259.837L365.296 254.392L370.014 251.124C370.741 250.397 371.828 250.397 372.918 250.397C374.008 250.397 374.732 250.397 375.822 250.761C376.912 251.124 377.636 251.85 378.363 252.214C379.453 252.578 380.18 253.301 381.63 253.665C382.721 254.028 383.448 254.028 384.897 254.392C385.988 254.392 387.075 254.028 388.529 253.301C389.619 252.578 391.069 251.488 391.069 249.674C391.433 248.947 391.069 248.22 391.069 247.13C390.706 246.406 390.706 245.679 389.979 244.589C389.619 243.503 388.892 242.775 388.166 241.685C387.802 241.321 387.075 240.598 386.351 240.234C385.988 239.871 385.261 239.508 384.897 239.145C384.535 238.781 384.171 238.781 383.808 238.054C383.448 237.694 383.448 236.603 383.808 236.24L385.624 231.883ZM351.863 256.932C352.59 256.568 352.953 256.206 354.04 256.568C354.767 256.206 355.494 256.568 355.857 256.568C357.307 256.932 358.398 258.023 358.761 259.113C359.125 259.837 359.125 260.563 359.125 261.29C359.125 261.653 359.125 262.74 359.125 263.104C358.761 264.195 357.671 265.644 356.581 266.008C355.857 266.371 355.13 266.371 354.403 266.371C354.04 266.371 352.953 266.371 352.589 266.371C351.136 266.008 350.049 264.921 349.685 263.831C349.322 263.104 349.322 262.377 349.322 261.653C348.958 260.926 349.322 260.2 349.322 259.837C349.685 259.113 350.049 258.75 350.049 258.023C350.409 257.659 351.499 257.659 351.863 256.932Z" fill="#CED6E2"/>
<path fill-rule="evenodd" clip-rule="evenodd" d="M118.072 228.745C118.803 228.745 119.395 229.338 119.395 230.069V295.412C119.395 302.307 125.335 308.249 132.229 308.249H331.533C338.424 308.249 344.367 302.307 344.367 295.412V235.15C344.367 234.419 344.959 233.827 345.69 233.827C346.421 233.827 347.014 234.419 347.014 235.15V295.412C347.014 303.768 339.886 310.896 331.533 310.896H132.229C123.872 310.896 116.748 303.768 116.748 295.412V230.069C116.748 229.338 117.341 228.745 118.072 228.745Z" fill="#1676EE"/>
<path d="M338.066 196.307H269.818C263.283 196.307 256.748 198.484 251.667 202.842L233.515 217.362C228.431 221.357 221.896 223.898 215.364 223.898H137.674C130.052 223.898 123.518 230.069 123.518 238.054C123.518 238.781 123.518 239.507 123.881 240.235L138.038 314.654C139.128 321.552 145.299 326.997 152.195 326.997H318.1C325.363 326.997 331.171 321.916 332.258 315.017L352.226 212.644C353.313 205.019 348.232 197.757 340.246 196.67C339.519 196.307 338.792 196.307 338.066 196.307Z" fill="white"/>
<g filter="url(#filter4_d_1813_2369)">
<path d="M356.944 182.873H275.626C268.001 182.873 260.015 185.78 254.208 190.498L232.425 208.286C226.254 213.371 218.631 215.911 211.006 215.911H117.709C108.633 215.911 100.645 223.17 100.645 232.972C100.645 233.699 100.645 234.786 101.008 235.513L118.072 325.909C119.523 334.258 126.421 340.793 135.133 340.793H332.984C341.333 340.793 348.595 334.622 350.049 326.273L373.645 202.478C375.096 193.402 368.924 184.326 359.488 182.873C358.762 182.873 357.671 182.873 356.944 182.873Z" fill="url(#paint1_linear_1813_2369)"/>
</g>
<path d="M200.116 277.987C204.834 277.987 208.829 273.996 208.829 269.275C208.829 264.557 204.834 260.562 200.116 260.562C195.395 260.562 191.4 264.557 191.4 269.275C191.4 273.996 195.395 277.987 200.116 277.987Z" fill="#989FB0"/>
<path d="M267.999 276.537C272.72 276.537 276.715 272.543 276.715 267.825C276.715 263.104 272.72 259.113 267.999 259.113C263.282 259.113 259.287 263.104 259.287 267.825C259.287 272.543 263.282 276.537 267.999 276.537Z" fill="#989FB0"/>
<path d="M252.391 291.058H247.674C243.68 283.072 233.88 279.805 226.255 284.16C222.988 285.613 220.446 288.517 219.357 291.058H214.639C218.633 280.528 230.613 275.084 240.775 279.078C246.223 281.255 250.214 285.613 252.391 291.058Z" fill="#989FB0"/>
<path d="M389.978 370.198C385.987 370.198 387.437 370.562 356.58 339.704C326.812 361.849 285.428 340.43 285.428 304.128C285.428 279.805 305.393 259.837 329.716 259.837C364.931 259.837 386.71 299.407 366.018 329.538L394.699 358.218C399.417 362.576 396.513 370.198 389.978 370.198ZM330.079 273.997C313.378 273.997 299.585 287.427 299.585 304.491C299.585 321.552 313.018 334.986 330.079 334.986C331.893 334.986 333.71 334.986 335.524 334.623C337.341 334.259 339.155 333.895 340.609 333.168C342.422 332.442 343.873 331.719 345.326 330.992C347.14 329.901 348.594 328.814 350.044 327.361C351.135 326.274 352.589 324.82 353.675 323.73C354.766 322.279 355.856 320.825 356.58 319.375C357.306 317.921 358.033 316.107 358.76 314.29C359.484 312.476 359.847 310.663 359.847 308.845C359.847 307.396 360.211 306.305 360.211 304.855C360.574 287.427 346.777 273.997 330.079 273.997Z" fill="#989FB0"/>
<path fill-rule="evenodd" clip-rule="evenodd" d="M198.611 244.449L179.009 254.975L178.383 253.809L197.985 243.283L198.611 244.449Z" fill="#989FB0"/>
<path fill-rule="evenodd" clip-rule="evenodd" d="M265.782 237.839L285.387 248.732L284.744 249.889L265.139 238.996L265.782 237.839Z" fill="#989FB0"/>
<defs>
<filter id="filter0_d_1813_2369" x="248.381" y="0" width="186.107" height="213.858" filterUnits="userSpaceOnUse" color-interpolation-filters="sRGB">
<feFlood flood-opacity="0" result="BackgroundImageFix"/>
<feColorMatrix in="SourceAlpha" type="matrix" values="0 0 0 0 0 0 0 0 0 0 0 0 0 0 0 0 0 0 127 0" result="hardAlpha"/>
<feOffset dy="11"/>
<feGaussianBlur stdDeviation="11"/>
<feColorMatrix type="matrix" values="0 0 0 0 0.397708 0 0 0 0 0.47749 0 0 0 0 0.575 0 0 0 0.27 0"/>
<feBlend mode="normal" in2="BackgroundImageFix" result="effect1_dropShadow_1813_2369"/>
<feBlend mode="normal" in="SourceGraphic" in2="effect1_dropShadow_1813_2369" result="shape"/>
</filter>
<filter id="filter1_d_1813_2369" x="0" y="41.1826" width="180.598" height="165.482" filterUnits="userSpaceOnUse" color-interpolation-filters="sRGB">
<feFlood flood-opacity="0" result="BackgroundImageFix"/>
<feColorMatrix in="SourceAlpha" type="matrix" values="0 0 0 0 0 0 0 0 0 0 0 0 0 0 0 0 0 0 127 0" result="hardAlpha"/>
<feOffset dy="11"/>
<feGaussianBlur stdDeviation="11"/>
<feColorMatrix type="matrix" values="0 0 0 0 0.397708 0 0 0 0 0.47749 0 0 0 0 0.575 0 0 0 0.27 0"/>
<feBlend mode="normal" in2="BackgroundImageFix" result="effect1_dropShadow_1813_2369"/>
<feBlend mode="normal" in="SourceGraphic" in2="effect1_dropShadow_1813_2369" result="shape"/>
</filter>
<filter id="filter2_d_1813_2369" x="118.619" y="83.6992" width="149.604" height="174.609" filterUnits="userSpaceOnUse" color-interpolation-filters="sRGB">
<feFlood flood-opacity="0" result="BackgroundImageFix"/>
<feColorMatrix in="SourceAlpha" type="matrix" values="0 0 0 0 0 0 0 0 0 0 0 0 0 0 0 0 0 0 127 0" result="hardAlpha"/>
<feOffset dy="11"/>
<feGaussianBlur stdDeviation="11"/>
<feColorMatrix type="matrix" values="0 0 0 0 0.397708 0 0 0 0 0.47749 0 0 0 0 0.575 0 0 0 0.27 0"/>
<feBlend mode="normal" in2="BackgroundImageFix" result="effect1_dropShadow_1813_2369"/>
<feBlend mode="normal" in="SourceGraphic" in2="effect1_dropShadow_1813_2369" result="shape"/>
</filter>
<filter id="filter3_d_1813_2369" x="286.535" y="177.193" width="170.1" height="170.588" filterUnits="userSpaceOnUse" color-interpolation-filters="sRGB">
<feFlood flood-opacity="0" result="BackgroundImageFix"/>
<feColorMatrix in="SourceAlpha" type="matrix" values="0 0 0 0 0 0 0 0 0 0 0 0 0 0 0 0 0 0 127 0" result="hardAlpha"/>
<feOffset dy="11"/>
<feGaussianBlur stdDeviation="11"/>
<feColorMatrix type="matrix" values="0 0 0 0 0.397708 0 0 0 0 0.47749 0 0 0 0 0.575 0 0 0 0.27 0"/>
<feBlend mode="normal" in2="BackgroundImageFix" result="effect1_dropShadow_1813_2369"/>
<feBlend mode="normal" in="SourceGraphic" in2="effect1_dropShadow_1813_2369" result="shape"/>
</filter>
<filter id="filter4_d_1813_2369" x="78.6445" y="171.873" width="317.211" height="201.92" filterUnits="userSpaceOnUse" color-interpolation-filters="sRGB">
<feFlood flood-opacity="0" result="BackgroundImageFix"/>
<feColorMatrix in="SourceAlpha" type="matrix" values="0 0 0 0 0 0 0 0 0 0 0 0 0 0 0 0 0 0 127 0" result="hardAlpha"/>
<feOffset dy="11"/>
<feGaussianBlur stdDeviation="11"/>
<feColorMatrix type="matrix" values="0 0 0 0 0.397708 0 0 0 0 0.47749 0 0 0 0 0.575 0 0 0 0.27 0"/>
<feBlend mode="normal" in2="BackgroundImageFix" result="effect1_dropShadow_1813_2369"/>
<feBlend mode="normal" in="SourceGraphic" in2="effect1_dropShadow_1813_2369" result="shape"/>
</filter>
<linearGradient id="paint0_linear_1813_2369" x1="231.338" y1="167.396" x2="231.338" y2="224.072" gradientUnits="userSpaceOnUse">
<stop stop-color="#B0BACC"/>
<stop offset="1" stop-color="#969EAE"/>
</linearGradient>
<linearGradient id="paint1_linear_1813_2369" x1="237.16" y1="179.221" x2="237.16" y2="342.494" gradientUnits="userSpaceOnUse">
<stop stop-color="#FDFEFF"/>
<stop offset="0.9964" stop-color="#ECF0F5"/>
</linearGradient>
</defs>
</svg>
